<?xml version="1.0" encoding="utf-8"?>
<!-- Generator: Adobe Illustrator 26.5.0, SVG Export Plug-In . SVG Version: 6.00 Build 0)  -->
<svg version="1.1" id="Layer_1" xmlns="http://www.w3.org/2000/svg" xmlns:xlink="http://www.w3.org/1999/xlink" x="0px" y="0px"
	 viewBox="0 0 110 119" style="enable-background:new 0 0 110 119;" xml:space="preserve">
<style type="text/css">
	.st0{fill:#12B0FB;}
</style>
<g>
	<path class="st0" d="M80.9,32.6H29.1c-0.8,0-1.5,0.7-1.5,1.5v51.7c0,0.8,0.7,1.5,1.5,1.5h51.7c0.8,0,1.5-0.7,1.5-1.5V34.1
		C82.4,33.3,81.7,32.6,80.9,32.6L80.9,32.6z M79.4,84.3H30.7V35.6h48.7L79.4,84.3z"/>
	<path class="st0" d="M36,66L36,66c-0.1,0.4-0.1,0.8-0.1,1.2c0,0.1,0,0.3,0.1,0.4c0.2,3.3,2.7,6.1,5.9,6.7c0.7,3.4,3.6,6,7.2,6
		c2.4,0,4.5-1.1,5.9-2.9c1.3,1.8,3.5,2.9,5.8,2.9c3.6,0,6.6-2.6,7.3-6c3.3-0.6,5.8-3.5,6-7c0,0,0-0.1,0-0.1v-0.1V67
		c0-0.3,0-0.7-0.1-1c1.9-1.4,3-3.6,3-6c0-2.4-1.2-4.6-3-6c0,0,0-0.1,0-0.1c0-0.3,0.1-0.6,0.1-0.9c0-3.6-2.6-6.6-6-7.3
		c-0.7-3.4-3.7-6-7.3-6c-2.4,0-4.5,1.1-5.8,2.9c-1.3-1.8-3.5-2.9-5.9-2.9c-3.6,0-6.6,2.6-7.2,6c-3.4,0.7-6,3.7-6,7.3
		c0,0.3,0,0.6,0.1,0.9V54c-1.9,1.4-3,3.6-3,6C33,62.4,34.1,64.6,36,66L36,66z M60.8,42.9c2.4,0,4.3,1.9,4.3,4.3
		c0,1.2-0.5,2.2-1.3,3.1c-0.6,0.6-0.6,1.6,0,2.2c0.3,0.3,0.7,0.5,1.1,0.5c0.4,0,0.8-0.1,1.1-0.4c1-1,1.7-2.2,2-3.5
		c1.7,0.6,3,2.2,3,4.1c0,0.3,0,0.6-0.1,0.9c0,0.1,0,0.1,0,0.1c-0.2,0.9-0.7,1.7-1.4,2.3c-0.7,0.5-0.7,1.5-0.2,2.2
		c0.3,0.4,0.7,0.6,1.2,0.6c0.3,0,0.7-0.1,1-0.3c0.6-0.5,1.1-1,1.5-1.6c0.7,0.8,1.1,1.8,1.1,2.9c0,1.1-0.4,2.2-1.2,3
		c-0.4-0.6-0.9-1.1-1.4-1.6c-0.7-0.5-1.6-0.4-2.2,0.2c-0.5,0.7-0.4,1.6,0.2,2.2c1,0.8,1.5,2,1.6,3.3c0,1.9-1.3,3.5-3,4
		c-0.3-1.3-1-2.5-2-3.5c-0.6-0.6-1.6-0.6-2.2,0c-0.6,0.6-0.6,1.6,0,2.2c0.8,0.8,1.3,1.9,1.3,3.1c0,2.4-1.9,4.3-4.3,4.3
		c-2.4,0-4.3-1.9-4.3-4.3l0-25.7C56.5,44.8,58.5,42.9,60.8,42.9L60.8,42.9z M38.7,58.7c0.3,0.2,0.6,0.3,1,0.3c0.5,0,0.9-0.2,1.2-0.6
		c0.5-0.7,0.4-1.6-0.2-2.1c-0.7-0.6-1.2-1.4-1.4-2.3c0-0.1,0-0.1,0-0.2C39.1,53.6,39,53.3,39,53c0-1.9,1.3-3.5,3-4.1
		c0.3,1.3,1,2.5,2,3.5c0.3,0.3,0.7,0.5,1.1,0.5c0.4,0,0.8-0.1,1.1-0.5c0.6-0.6,0.6-1.6,0-2.2c-0.8-0.8-1.3-1.9-1.3-3.1
		c0-2.4,1.9-4.3,4.3-4.3c2.4,0,4.3,1.9,4.3,4.3v25.6c0,2.4-1.9,4.3-4.3,4.3c-2.4,0-4.3-1.9-4.3-4.3c0-1.2,0.5-2.3,1.3-3.1
		c0.6-0.6,0.6-1.6,0-2.2c-0.6-0.6-1.6-0.6-2.2,0c-1,1-1.6,2.2-2,3.5c-1.7-0.6-3-2.2-3-4.1c0-0.1,0-0.2,0-0.3c0-0.1,0-0.3,0.1-0.5
		c0,0,0,0,0-0.1c0.2-0.9,0.7-1.7,1.5-2.3c0.7-0.5,0.8-1.5,0.2-2.1c-0.5-0.7-1.5-0.8-2.1-0.2c-0.6,0.5-1,1-1.4,1.6
		c-0.7-0.8-1.2-1.8-1.2-3c0-1.1,0.4-2.1,1.1-2.9C37.6,57.7,38.1,58.3,38.7,58.7L38.7,58.7z"/>
	<path class="st0" d="M45.6,57c3.1,0,5.5-2.5,5.5-5.5c0-0.8-0.7-1.5-1.5-1.5s-1.5,0.7-1.5,1.5c0,1.4-1.1,2.5-2.5,2.5
		c-0.8,0-1.5,0.7-1.5,1.5C44.1,56.3,44.7,57,45.6,57L45.6,57z"/>
	<path class="st0" d="M45.6,65.3c1.4,0,2.5,1.1,2.5,2.5c0,0.8,0.7,1.5,1.5,1.5s1.5-0.7,1.5-1.5c0-3-2.5-5.5-5.5-5.5
		c-0.8,0-1.5,0.7-1.5,1.5C44,64.6,44.7,65.3,45.6,65.3z"/>
	<path class="st0" d="M64.4,57c0.8,0,1.5-0.7,1.5-1.5s-0.7-1.5-1.5-1.5c-1.4,0-2.5-1.1-2.5-2.5c0-0.8-0.7-1.5-1.5-1.5
		s-1.5,0.7-1.5,1.5C58.9,54.5,61.4,57,64.4,57L64.4,57z"/>
	<path class="st0" d="M60.4,69.3c0.8,0,1.5-0.7,1.5-1.5c0-1.4,1.1-2.5,2.5-2.5c0.8,0,1.5-0.7,1.5-1.5c0-0.8-0.7-1.5-1.5-1.5
		c-3,0-5.5,2.5-5.5,5.5C58.9,68.6,59.6,69.3,60.4,69.3L60.4,69.3z"/>
	<path class="st0" d="M88.6,51.7h7.9c0.8,0,1.5-0.7,1.5-1.5V39.7c2.5-0.5,4.4-2.6,4.4-5.2c0-2.9-2.4-5.3-5.3-5.3s-5.3,2.4-5.3,5.3
		c0,2.2,1.3,4.1,3.2,4.9v9.3h-6.3V33.1c0-3.7-3-6.7-6.7-6.7H66.5v-6.9h25.5c0.7,2.2,2.7,3.8,5.1,3.8c2.9,0,5.3-2.4,5.3-5.3
		c0-2.9-2.4-5.3-5.3-5.3c-2.4,0-4.4,1.6-5.1,3.8h-27c-0.8,0-1.5,0.7-1.5,1.5v8.4h-6.9v-3.3c2.2-0.7,3.8-2.7,3.8-5.1
		c0-2.9-2.4-5.3-5.3-5.3c-3,0-5.4,2.4-5.4,5.3c0,2.4,1.6,4.4,3.8,5.1v3.3h-6.8v-7.9c0-0.8-0.7-1.5-1.5-1.5H34.7
		c-0.5-2.5-2.7-4.4-5.3-4.4c-2.9,0-5.3,2.4-5.3,5.3s2.4,5.3,5.3,5.3c2.2,0,4.1-1.3,4.9-3.2h9.3v6.3l-15.6,0c-3.7,0-6.7,3-6.7,6.7
		l0,15.4h-6.9V23.1c2.2-0.7,3.8-2.7,3.8-5.1c0-2.9-2.4-5.3-5.3-5.3c-3,0-5.4,2.4-5.4,5.3c0,2.4,1.6,4.4,3.8,5.1v27
		c0,0.8,0.7,1.5,1.5,1.5h8.4v6.9h-3.3c-0.7-2.2-2.7-3.8-5.1-3.8c-3,0-5.4,2.4-5.4,5.3c0,3,2.4,5.4,5.4,5.4c2.4,0,4.4-1.6,5.1-3.8
		h3.3v6.8h-7.9c-0.8,0-1.5,0.7-1.5,1.5v10.5c-2.5,0.5-4.4,2.7-4.4,5.3c0,2.9,2.4,5.3,5.4,5.3c2.9,0,5.3-2.4,5.3-5.3
		c0-2.2-1.3-4.1-3.3-4.9v-9.3h6.3v15.6c0,3.7,3,6.7,6.7,6.7h15.5v6.9H18.1c-0.7-2.2-2.7-3.8-5.1-3.8c-3,0-5.4,2.4-5.4,5.3
		c0,3,2.4,5.4,5.4,5.4c2.4,0,4.4-1.6,5.1-3.8h27c0.8,0,1.5-0.7,1.5-1.5v-8.4h6.9v3.3c-2.2,0.7-3.8,2.7-3.8,5.1c0,3,2.4,5.4,5.4,5.4
		c2.9,0,5.3-2.4,5.3-5.4c0-2.4-1.6-4.4-3.8-5.1v-3.3h6.7v7.9c0,0.8,0.7,1.5,1.5,1.5h10.5c0.5,2.5,2.6,4.4,5.2,4.4
		c2.9,0,5.3-2.4,5.3-5.4c0-2.9-2.4-5.3-5.3-5.3c-2.2,0-4.1,1.3-4.9,3.3h-9.3v-6.3h15.6c3.7,0,6.7-3,6.7-6.7V71.5h6.9v25.5
		c-2.2,0.7-3.8,2.7-3.8,5.1c0,3,2.4,5.4,5.3,5.4s5.3-2.4,5.3-5.4c0-2.4-1.6-4.4-3.8-5.1l0-27c0-0.8-0.7-1.5-1.5-1.5h-8.4v-6.9h3.3
		c0.7,2.2,2.7,3.8,5.1,3.8c2.9,0,5.3-2.4,5.3-5.4c0-2.9-2.4-5.3-5.3-5.3c-2.4,0-4.4,1.6-5.1,3.8h-3.3L88.6,51.7L88.6,51.7z M97,32.1
		c1.3,0,2.3,1,2.3,2.3c0,1.3-1,2.3-2.3,2.3c-1.3,0-2.3-1-2.3-2.3C94.7,33.2,95.8,32.1,97,32.1z M97,15.7c1.3,0,2.3,1,2.3,2.3
		c0,1.3-1,2.3-2.3,2.3c-1.3,0-2.3-1-2.3-2.3C94.7,16.7,95.8,15.7,97,15.7z M52.7,18c0-1.3,1-2.3,2.3-2.3c1.3,0,2.3,1,2.3,2.3
		c0,1.3-1,2.3-2.3,2.3C53.7,20.3,52.7,19.2,52.7,18z M29.4,20.3c-1.3,0-2.3-1-2.3-2.3c0-1.3,1-2.3,2.3-2.3c1.3,0,2.3,1,2.3,2.3
		C31.7,19.2,30.7,20.3,29.4,20.3z M10.7,18c0-1.3,1-2.3,2.3-2.3c1.3,0,2.3,1,2.3,2.3c0,1.3-1,2.3-2.3,2.3
		C11.7,20.3,10.7,19.2,10.7,18z M13,62.3c-1.3,0-2.3-1.1-2.3-2.3c0-1.3,1-2.3,2.3-2.3c1.3,0,2.3,1,2.3,2.3
		C15.3,61.2,14.2,62.3,13,62.3z M13,87.9c-1.3,0-2.3-1-2.3-2.3c0-1.3,1.1-2.3,2.3-2.3c1.3,0,2.3,1,2.3,2.3
		C15.3,86.8,14.3,87.9,13,87.9z M13,104.3c-1.3,0-2.3-1-2.3-2.3c0-1.3,1-2.3,2.3-2.3c1.3,0,2.3,1,2.3,2.3
		C15.3,103.3,14.3,104.3,13,104.3z M57.3,102c0,1.3-1,2.3-2.3,2.3c-1.3,0-2.3-1.1-2.3-2.3c0-1.2,1.1-2.3,2.3-2.3
		C56.3,99.7,57.3,100.7,57.3,102z M80.6,99.7c1.3,0,2.3,1,2.3,2.3c0,1.3-1,2.3-2.3,2.3c-1.3,0-2.3-1-2.3-2.3
		C78.3,100.7,79.3,99.7,80.6,99.7z M99.3,102c0,1.3-1,2.3-2.3,2.3c-1.3,0-2.3-1-2.3-2.3c0-1.3,1-2.3,2.3-2.3S99.3,100.7,99.3,102z
		 M97,57.7c1.3,0,2.3,1,2.3,2.3c0,1.3-1,2.3-2.3,2.3c-1.3,0-2.3-1-2.3-2.3C94.7,58.7,95.8,57.7,97,57.7z M85.5,86.9
		c0,2-1.6,3.6-3.6,3.6H28.1c-2,0-3.6-1.6-3.6-3.6V33.1c0-2,1.6-3.6,3.6-3.6h53.8c2,0,3.6,1.6,3.6,3.6V86.9z"/>
</g>
</svg>
